<?xml version="1.0" encoding="utf-8"?><svg xmlns="http://www.w3.org/2000/svg" xmlns:xlink="http://www.w3.org/1999/xlink"><symbol viewBox="0 0 129 129" id="icon-arrow" xmlns="http://www.w3.org/2000/svg"><path d="M121.3 34.6c-1.6-1.6-4.2-1.6-5.8 0l-51 51.1-51.1-51.1c-1.6-1.6-4.2-1.6-5.8 0-1.6 1.6-1.6 4.2 0 5.8l53.9 53.9c.8.8 1.8 1.2 2.9 1.2 1 0 2.1-.4 2.9-1.2l53.9-53.9c1.7-1.6 1.7-4.2.1-5.8z"/></symbol><symbol viewBox="0 0 24 24" id="icon-exit" xmlns="http://www.w3.org/2000/svg"><path d="M4 12a1 1 0 001 1h7.59l-2.3 2.29a1 1 0 000 1.42 1 1 0 001.42 0l4-4a1 1 0 00.21-.33 1 1 0 000-.76 1 1 0 00-.21-.33l-4-4a1 1 0 10-1.42 1.42l2.3 2.29H5a1 1 0 00-1 1zM17 2H7a3 3 0 00-3 3v3a1 1 0 002 0V5a1 1 0 011-1h10a1 1 0 011 1v14a1 1 0 01-1 1H7a1 1 0 01-1-1v-3a1 1 0 00-2 0v3a3 3 0 003 3h10a3 3 0 003-3V5a3 3 0 00-3-3z"/></symbol><symbol id="icon-logo" viewBox="0 0 150 50" xml:space="preserve" xmlns="http://www.w3.org/2000/svg"><style>.cst0{fill:#191919}</style><path class="cst0" d="M61.64 16.53v.51c.52-.43 1.04-.62 1.67-.62 1.52 0 2.71 1.29 2.71 2.96 0 1.87-1.14 3.1-2.87 3.1-.43 0-.88-.1-1.27-.28-.11-.05-.24.02-.24.14v2.77c0 .09-.07.16-.16.16h-1.51c-.09 0-.16-.07-.16-.16V16.7c0-.09.07-.16.16-.16h1.67m0 4.24c0 .05.03.11.07.14.34.23.65.33.99.33.9 0 1.45-.68 1.45-1.77 0-1.11-.51-1.76-1.38-1.76-.37 0-.65.1-1.07.42-.04.03-.07.08-.07.14l.01 2.5zm7.44-1.37h.03l2.21-2.82c.03-.04.08-.06.13-.06h1.74c.14 0 .21.16.13.26l-1.99 2.52c-.05.06-.05.14 0 .2l2.08 2.58c.09.11.01.27-.13.27h-1.83c-.05 0-.1-.02-.13-.06l-2.21-2.81h-.03v2.71c0 .09-.07.16-.16.16h-1.51c-.09 0-.16-.07-.16-.16v-8.3c0-.09.07-.16.16-.16h1.51c.09 0 .16.07.16.16v5.51zm6.91-2.37c.52-.43 1.04-.62 1.67-.62 1.52 0 2.71 1.29 2.71 2.96 0 1.87-1.14 3.1-2.87 3.1-.43 0-.88-.1-1.27-.28-.11-.05-.24.02-.24.14v2.77c0 .09-.07.16-.16.16h-1.51c-.09 0-.16-.07-.16-.16V16.7c0-.09.07-.16.16-.16h1.67v.5zm0 3.74c0 .05.03.11.07.14.34.23.65.33.99.33.9 0 1.45-.68 1.45-1.77 0-1.11-.51-1.76-1.38-1.76-.37 0-.65.1-1.07.42-.04.03-.07.08-.07.14v2.5zM64.94 32.71c0 .07-.05.13-.11.16-.68.24-1.27.35-1.86.35-2.05 0-3.38-1.19-3.38-3.01 0-1.78 1.38-3.05 3.3-3.05.56 0 1.27.13 1.85.34.07.02.11.09.11.16v.99c0 .12-.12.19-.23.15a3.35 3.35 0 00-1.26-.28c-1.1 0-1.81.66-1.81 1.68 0 1.04.7 1.72 1.75 1.72.4 0 .76-.08 1.42-.32.11-.04.22.04.22.15v.96zm4.23.51c-1.91 0-3.3-1.2-3.3-3.04 0-1.99 1.58-3.02 3.3-3.02 1.43 0 3.28.8 3.28 3.04 0 2.31-1.99 3.02-3.28 3.02zm0-4.97c-.8 0-1.34.62-1.34 1.94 0 1.51.65 1.95 1.34 1.95.86 0 1.32-.71 1.32-1.99 0-1.14-.39-1.9-1.32-1.9zm6.38-.23c.32-.29.64-.51.97-.66.34-.14.68-.2 1.05-.2.89 0 1.53.31 1.94.96.09.13.28.14.39.02l.15-.16c1.53-1.57 4.19-.48 4.19 1.71v3.25c0 .09-.07.16-.16.16h-1.51c-.09 0-.16-.07-.16-.16v-3.25c0-.83-.41-1.3-1.07-1.3-.52 0-1 .33-1.41.94-.02.03-.03.06-.03.1v3.52c0 .09-.07.16-.16.16h-1.51c-.09 0-.16-.07-.16-.16v-3.29c0-.95-.57-1.26-1.11-1.26-.47 0-.93.26-1.36.76a.15.15 0 00-.04.11v3.68c0 .09-.07.16-.16.16h-1.51c-.09 0-.16-.07-.16-.16v-5.5c0-.09.07-.16.16-.16h1.67v.73zm12.03-.24c.52-.43 1.04-.62 1.67-.62 1.52 0 2.71 1.29 2.71 2.96 0 1.87-1.14 3.1-2.87 3.1-.43 0-.88-.1-1.27-.28-.11-.05-.24.02-.24.14v2.77c0 .09-.07.16-.16.16h-1.51c-.09 0-.16-.07-.16-.16v-8.41c0-.09.07-.16.16-.16h1.67v.5zm0 3.75c0 .05.03.11.07.14.35.23.65.33 1 .33.9 0 1.45-.68 1.45-1.77 0-1.11-.51-1.76-1.38-1.76-.37 0-.65.1-1.07.42-.04.03-.07.08-.07.14v2.5zm11.54 1.06c0 .06-.03.12-.08.14-.5.28-1.17.48-1.64.48-.53 0-.81-.14-.96-.49-.04-.09-.15-.11-.23-.06-.63.4-1.17.54-1.75.54-.94 0-1.63-.7-1.63-1.43 0-1.39 1.02-1.67 3.47-2.43.04-.54-.22-.97-1.01-.97-.58 0-1.22.23-1.75.62-.17.12-.4.01-.4-.2v-.85c0-.06.03-.12.08-.15.74-.44 1.56-.66 2.45-.66 1.47 0 2.47.49 2.47 1.77v2.66c0 .29.11.41.3.41.13 0 .27-.03.7-.33v.95zm-2.84-2.07c0-.11-.12-.19-.22-.15-.94.35-1.38.6-1.38 1.14 0 .34.27.62.59.62.32 0 .66-.14.95-.39.04-.03.06-.08.06-.13v-1.09zm5.43-2.41c.58-.67 1.15-.95 1.9-.95.91 0 2.12.52 2.12 2.24v3.54c0 .09-.07.16-.16.16h-1.51c-.09 0-.16-.07-.16-.16v-3.39c0-.82-.39-1.16-.91-1.16-.45 0-.78.23-1.25.92-.02.03-.03.06-.03.1v3.54c0 .09-.07.16-.16.16h-1.51c-.09 0-.16-.07-.16-.16v-5.5c0-.09.07-.16.16-.16h1.67v.82zm7.2 7.79h-1.59c-.12 0-.2-.12-.15-.23l1.57-3.44a.17.17 0 000-.14l-2.14-4.58c-.05-.11.03-.23.15-.23h1.6c.07 0 .13.04.15.1l1.04 2.54c.05.13.24.14.3 0l1.12-2.55c.03-.06.08-.1.15-.1h1.56c.12 0 .2.12.15.23l-3.76 8.3c-.02.07-.08.1-.15.1z"/><path d="M40.74 33.71c.21-.21.32-.49.32-.78v-10.1c0-.29.12-.57.32-.78l2.03-2.03c.21-.21.49-.32.78-.32h2.86c.29 0 .57.12.78.32l2.03 2.03c.21.21.32.49.32.78v2.86c0 .29-.12.57-.32.78l-2.03 2.03c-.21.21-.49.32-.78.32h-.98c-.29 0-.57.12-.78.32l-2.27 2.27a.37.37 0 00.26.63h5.1c.29 0 .57-.12.78-.32l3.91-3.91c.21-.21.32-.49.32-.78V21.5c0-.29-.12-.57-.32-.78l-3.91-3.91c-.21-.21-.49-.32-.78-.32h-5.53c-.29 0-.57.12-.78.32l-3.91 3.91c-.21.21-.32.49-.32.78v14.22c0 .33.4.49.63.26l2.27-2.27z" fill="#c20e1a"/></symbol><symbol viewBox="0 0 24 24" fill="none" stroke="currentColor" stroke-width="2" stroke-linecap="round" stroke-linejoin="round" class="dfeather dfeather-plus-circle" id="icon-plus" xmlns="http://www.w3.org/2000/svg"><circle cx="12" cy="12" r="10"/><path d="M12 8v8m-4-4h8"/></symbol><symbol viewBox="0 0 64 64" id="icon-user" xmlns="http://www.w3.org/2000/svg"><path d="M41.245 33.035a16 16 0 10-18.49 0A26.041 26.041 0 004 58a2 2 0 002 2h52a2 2 0 002-2 26.041 26.041 0 00-18.755-24.965zM20 20a12 12 0 1112 12 12.014 12.014 0 01-12-12zM8.09 56A22.03 22.03 0 0130 36h4a22.03 22.03 0 0121.91 20z"/></symbol></svg>