<?xml version="1.0" encoding="utf-8"?><svg xmlns="http://www.w3.org/2000/svg" xmlns:xlink="http://www.w3.org/1999/xlink"><symbol viewBox="0 0 129 129" id="icon-arrow" xmlns="http://www.w3.org/2000/svg"><path d="M121.3 34.6c-1.6-1.6-4.2-1.6-5.8 0l-51 51.1-51.1-51.1c-1.6-1.6-4.2-1.6-5.8 0-1.6 1.6-1.6 4.2 0 5.8l53.9 53.9c.8.8 1.8 1.2 2.9 1.2 1 0 2.1-.4 2.9-1.2l53.9-53.9c1.7-1.6 1.7-4.2.1-5.8z"/></symbol><symbol viewBox="0 0 24 24" id="icon-exit" xmlns="http://www.w3.org/2000/svg"><path d="M4 12a1 1 0 001 1h7.59l-2.3 2.29a1 1 0 000 1.42 1 1 0 001.42 0l4-4a1 1 0 00.21-.33 1 1 0 000-.76 1 1 0 00-.21-.33l-4-4a1 1 0 10-1.42 1.42l2.3 2.29H5a1 1 0 00-1 1zM17 2H7a3 3 0 00-3 3v3a1 1 0 002 0V5a1 1 0 011-1h10a1 1 0 011 1v14a1 1 0 01-1 1H7a1 1 0 01-1-1v-3a1 1 0 00-2 0v3a3 3 0 003 3h10a3 3 0 003-3V5a3 3 0 00-3-3z"/></symbol><symbol id="icon-logo" viewBox="0 0 76.5 22.7" xml:space="preserve" xmlns="http://www.w3.org/2000/svg"><style>.cst0{fill:#191919}</style><path class="cst0" d="M24.2 2.8v.5c.5-.4 1.1-.6 1.7-.6 1.6 0 2.8 1.3 2.8 3 0 1.9-1.2 3.2-2.9 3.2-.4 0-.9-.1-1.3-.3-.1-.1-.2 0-.2.1v2.8c0 .1-.1.2-.2.2h-1.5c-.1 0-.2-.1-.2-.2V3c0-.1.1-.2.2-.2h1.6m0 4.4c0 .1 0 .1 0 0 .4.3.8.4 1.1.4.9 0 1.5-.7 1.5-1.8S26.3 4 25.4 4c-.4 0-.7.1-1.1.4l-.1.1v2.7zm7.6-1.4l2.3-2.9.1-.1H36c.1 0 .2.2.1.3l-2 2.6c-.1.1-.1.1 0 .2l2.1 2.6c.1.1 0 .3-.1.3h-1.9c-.1 0-.1 0-.1-.1l-2.3-2.9v2.8c0 .1-.1.2-.2.2h-1.5c-.1 0-.2-.1-.2-.2V.2c0-.1.1-.2.2-.2h1.5c.1 0 .2.1.2.2v5.6zm7-2.4c.5-.4 1.1-.6 1.7-.6 1.6 0 2.8 1.3 2.8 3 0 1.9-1.2 3.2-2.9 3.2-.4 0-.9-.1-1.3-.3-.1-.1-.2 0-.2.1v2.8c0 .1-.1.2-.2.2h-1.5c-.1 0-.2-.1-.2-.2V3c0-.1.1-.2.2-.2h1.7c-.1.1-.1.6-.1.6zm0 3.8c0 .1 0 .1 0 0 .4.3.8.4 1.1.4.9 0 1.5-.7 1.5-1.8S40.9 4 40 4c-.4 0-.7.1-1.1.4l-.1.1v2.7zM27.6 19.4c0 .1-.1.1-.1.2-.7.2-1.3.4-1.9.4-2.1 0-3.4-1.2-3.4-3.1 0-1.8 1.4-3.1 3.4-3.1.6 0 1.3.1 1.9.3.1 0 .1.1.1.2v1c0 .1-.1.2-.2.2-.4-.2-.9-.3-1.3-.3-1.1 0-1.8.7-1.8 1.7 0 1.1.7 1.8 1.8 1.8.4 0 .8-.1 1.4-.3.1 0 .2 0 .2.2-.1-.2-.1.8-.1.8zm4.3.5c-1.9 0-3.4-1.2-3.4-3.1 0-2 1.6-3.1 3.4-3.1 1.5 0 3.3.8 3.3 3.1 0 2.4-2 3.1-3.3 3.1zm0-5.1c-.8 0-1.4.6-1.4 2 0 1.5.7 2 1.4 2 .9 0 1.3-.7 1.3-2 0-1.2-.4-2-1.3-2zm6.5-.2c.3-.3.7-.5 1-.7.3-.1.7-.2 1.1-.2.9 0 1.6.3 2 1 .1.1.3.1.4 0l.2-.2c1.6-1.6 4.3-.5 4.3 1.7v3.3c0 .1-.1.2-.2.2h-1.5c-.1 0-.2-.1-.2-.2v-3.3c0-.8-.4-1.3-1.1-1.3-.5 0-1 .3-1.4 1v3.7c0 .1-.1.2-.2.2h-1.5c-.1 0-.2-.1-.2-.2v-3.4c0-1-.6-1.3-1.1-1.3s-.9.3-1.4.8v3.9c0 .1-.1.2-.2.2h-1.5c-.1 0-.2-.1-.2-.2V14c0-.1.1-.2.2-.2h1.7l-.2.8zm12.3-.3c.5-.4 1.1-.6 1.7-.6 1.6 0 2.8 1.3 2.8 3 0 1.9-1.2 3.2-2.9 3.2-.4 0-.9-.1-1.3-.3-.1-.1-.2 0-.2.1v2.8c0 .1-.1.2-.2.2h-1.5c-.1 0-.2-.1-.2-.2V14c0-.1.1-.2.2-.2h1.7c-.1 0-.1.5-.1.5zm0 3.9c0 .1 0 .1 0 0 .5.3.8.4 1.1.4.9 0 1.5-.7 1.5-1.8s-.5-1.8-1.4-1.8c-.4 0-.7.1-1.1.4l-.1.1v2.7zm11.7 1c0 .1 0 .1 0 0-.6.4-1.3.6-1.8.6s-.8-.1-1-.5c0-.1-.2-.1-.2-.1-.6.4-1.2.6-1.8.6-1 0-1.7-.7-1.7-1.5 0-1.4 1-1.7 3.5-2.5 0-.6-.2-1-1-1-.6 0-1.2.2-1.8.6-.2.1-.4 0-.4-.2v-.9c0-.1 0-.1.1-.2.8-.4 1.6-.7 2.5-.7 1.5 0 2.5.5 2.5 1.8v2.7c0 .3.1.4.3.4.1 0 .3 0 .7-.3l.1 1.2zm-2.9-2.1c0-.1-.1-.2-.2-.2-1 .4-1.4.6-1.4 1.2 0 .3.3.6.6.6s.7-.1 1-.4l.1-.1-.1-1.1zm5.6-2.4c.6-.7 1.2-1 1.9-1 .9 0 2.2.5 2.2 2.3v3.6c0 .1-.1.2-.2.2h-1.5c-.1 0-.2-.1-.2-.2v-3.5c0-.8-.4-1.2-.9-1.2s-.8.2-1.3.9v3.7c0 .1-.1.2-.2.2h-1.5c-.1 0-.2-.1-.2-.2V14c0-.1.1-.2.2-.2h1.7v.9zm7.2 7.9h-1.6c-.1 0-.2-.1-.2-.2l1.6-3.5v-.1l-2.2-4.7c-.1-.1 0-.2.2-.2h1.7c.1 0 .1 0 .2.1l1.1 2.6c.1.1.2.1.3 0l1.1-2.6c0-.1.1-.1.2-.1h1.6c.1 0 .2.1.2.2l-3.8 8.5h-.4z"/><path d="M3 20.4c.2-.2.3-.5.3-.8V9.3c0-.3.1-.6.3-.8l2.1-2.1c.2-.2.5-.3.8-.3h2.9c.3 0 .6.1.8.3l2.1 2.1c.2.2.3.5.3.8v2.9c0 .3-.1.6-.3.8l-2.1 2.1c-.2.2-.5.3-.8.3h-1c-.3 0-.6.1-.8.3L5.3 18c-.2.2-.1.6.3.6h5.2c.3 0 .6-.1.8-.3l4-4c.2-.2.3-.5.3-.8V7.9c0-.3-.1-.6-.3-.8l-4-4c-.2-.2-.5-.3-.8-.3H5.1c-.3 0-.6.1-.8.3l-4 4c-.2.2-.3.5-.3.8v14.5c0 .3.4.5.6.3L3 20.4z" fill="#c20e1a"/></symbol><symbol viewBox="0 0 24 24" fill="none" stroke="currentColor" stroke-width="2" stroke-linecap="round" stroke-linejoin="round" class="dfeather dfeather-plus-circle" id="icon-plus" xmlns="http://www.w3.org/2000/svg"><circle cx="12" cy="12" r="10"/><path d="M12 8v8m-4-4h8"/></symbol><symbol viewBox="0 0 64 64" id="icon-user" xmlns="http://www.w3.org/2000/svg"><path d="M41.245 33.035a16 16 0 10-18.49 0A26.041 26.041 0 004 58a2 2 0 002 2h52a2 2 0 002-2 26.041 26.041 0 00-18.755-24.965zM20 20a12 12 0 1112 12 12.014 12.014 0 01-12-12zM8.09 56A22.03 22.03 0 0130 36h4a22.03 22.03 0 0121.91 20z"/></symbol></svg>